#!OML:ASF F:\VICON\USERDATA\INSTALL\rory3\rory3.ASF
:FULLY-SPECIFIED
:DEGREES
504
root 2.30824 15.6019 32.8046 613.572 37.0493 -133.788
lowerback 15.8586 0.812386 -13.5054
upperback -2.85987 -2.04492 -9.84646
thorax -12.1875 -0.162269 -3.00628
lowerneck -27.7422 7.25239 1.44768
upperneck 7.98215 8.87997 3.97737
head 6.63383 4.8201 2.26764
rclavicle 2.54444e-014 -2.06736e-014
rhumerus -15.8549 -12.9355 -8.71082
rradius 29.7776
rwrist -1.66942
rhand -29.8507 -422.486
rfingers 7.12502
rthumb 176.827 -87.5578
lclavicle 2.54444e-014 -2.06736e-014
lhumerus 4.15162 3.33076 32.6165
lradius 31.1705
lwrist 37.8785
lhand -43.5746 -743.8
lfingers 7.12502
lthumb -16.4116 5.52602
rfemur -31.5797 -7.55256 53.1893
rtibia 41.6173
rfoot -7.85303 -23.091
rtoes -12.0549
lfemur -88.1435 22.9208 -12.8417
ltibia 60.605
lfoot -17.446 28.932
ltoes 9.35963
505
root 2.24257 15.6695 32.9102 613.306 39.0243 -133.516
lowerback 15.6539 0.940946 -13.2256
upperback -2.93978 -1.80652 -9.82922
thorax -12.1765 -0.0771529 -3.19808
lowerneck -27.2745 7.34173 1.31167
upperneck 8.48491 9.03276 3.82698
head 6.73211 4.85557 2.2542
rclavicle -5.40694e-014 4.77083e-015
rhumerus -15.9702 -12.5089 -8.69768
rradius 29.9666
rwrist -1.61717
rhand -28.8552 -422.428
rfingers 7.12502
rthumb 177.788 -87.6039
lclavicle -5.40694e-014 4.77083e-015
lhumerus 2.51668 3.49832 34.0011
lradius 31.5702
lwrist 36.8866
lhand -43.2112 -743.954
lfingers 7.12502
lthumb -16.0617 5.39995
rfemur -30.987 -7.29614 52.0831
rtibia 41.2758
rfoot -10.1636 -23.5376
rtoes -6.13228
lfemur -86.5956 22.702 -12.9995
ltibia 59.8229
lfoot -17.1148 29.4692
ltoes 10.6638
506
root 2.17136 15.7061 33.0239 613.088 40.6889 -133.214
lowerback 15.4688 0.989963 -12.5974
upperback -2.93911 -1.60195 -9.74822
thorax -12.0801 -0.0375813 -3.48819
lowerneck -27.0617 7.45702 1.22293
upperneck 8.9043 9.21825 3.59968
head 6.84401 4.90414 2.22068
rclavicle 9.54166e-014 -6.04305e-014
rhumerus -15.9473 -12.097 -8.78374
rradius 30.0586
rwrist -1.69943
rhand -27.0787 -422.046
rfingers 7.12502
rthumb 179.504 -87.9752
lclavicle 9.54166e-014 -6.04305e-014
lhumerus 0.957782 3.70811 35.2736
lradius 31.8345
lwrist 36.1428
lhand -42.8695 -746.607
lfingers 7.12502
lthumb -15.7327 2.77329
rfemur -30.58 -7.32641 51.428
rtibia 41.002
rfoot -9.54276 -24.7558
rtoes -5.66214
lfemur -85.593 22.8153 -13.4781
ltibia 59.1833
lfoot -16.1751 29.602
ltoes 10.4096
507
root 2.11257 15.7645 33.0898 613.347 43.3046 -132.491
lowerback 14.7545 1.15634 -12.6285
upperback -3.09368 -1.27998 -9.96788
thorax -11.8538 0.104343 -3.78922
lowerneck -26.2804 7.70338 1.4602
upperneck 9.0628 9.52052 3.19159
head 6.80704 5.00321 2.06301
rclavicle 2.8625e-014 4.13472e-014
rhumerus -15.8612 -10.9328 -9.1018
rradius 30.1498
rwrist -2.42148
rhand -30.6567 -421.686
rfingers 7.12502
rthumb 176.048 -88.3714
lclavicle 2.8625e-014 4.13472e-014
lhumerus -0.880353 3.17733 36.1436
lradius 32.2093
lwrist 35.8221
lhand -42.6697 -747.607
lfingers 7.12502
lthumb -15.5402 1.78856
rfemur -30.2139 -7.56534 49.9087
rtibia 40.8463
rfoot -7.2891 -25.6041
rtoes -7.58542
lfemur -84.2551 23.1185 -14.5763
ltibia 58.5011
lfoot -16.3825 29.9427
ltoes 12.1037
508
root 2.04456 15.8085 33.178 613.74 44.855 -131.775
lowerback 14.0748 1.18105 -11.5953
upperback -3.16969 -0.965547 -9.90074
thorax -11.5472 0.162118 -4.32239
lowerneck -25.6685 7.80304 1.4051
upperneck 9.32648 9.70486 2.8737
head 6.81463 5.04428 1.97328
rclavicle 1.01778e-013 4.45278e-014
rhumerus -15.7437 -9.91595 -9.2281
rradius 30.3141
rwrist -2.19512
rhand -31.4565 -421.02
rfingers 7.12502
rthumb 175.276 -89.0532
lclavicle 1.01778e-013 4.45278e-014
lhumerus -2.50493 2.52268 37.0446
lradius 32.5838
lwrist 35.2433
lhand -42.8442 -746.652
lfingers 7.12502
lthumb -15.7083 2.73087
rfemur -30.0239 -7.97781 49.5467
rtibia 40.6752
rfoot -5.42078 -26.1339
rtoes -8.35877
lfemur -83.3326 23.1647 -14.5105
ltibia 57.9396
lfoot -15.816 30.473
ltoes 13.0866
509
root 1.97011 15.8539 33.2856 613.778 46.4072 -131.335
lowerback 13.7239 1.07166 -10.8249
upperback -3.08437 -0.91302 -9.8544
thorax -11.2407 0.121314 -4.67617
lowerneck -25.5432 7.99655 1.6114
upperneck 9.7146 9.93582 2.47786
head 6.95268 5.11195 1.85102
rclavicle 6.36111e-014 1.24042e-013
rhumerus -15.2439 -9.51558 -9.63646
rradius 30.3733
rwrist -0.832893
rhand -23.6946 -421.661
rfingers 7.12502
rthumb 182.772 -88.3775
lclavicle 6.36111e-014 1.24042e-013
lhumerus -4.07825 2.74825 37.7945
lradius 32.8903
lwrist 33.9692
lhand -42.9747 -747.23
lfingers 7.12502
lthumb -15.834 2.14284
rfemur -29.7955 -8.15368 49.0362
rtibia 40.6263
rfoot -5.12226 -26.6058
rtoes -5.97372
lfemur -82.2546 22.9769 -14.3548
ltibia 57.4443
lfoot -15.476 30.93
ltoes 14.0205
510
root 1.89647 15.8716 33.3964 613.937 47.84 -130.828
lowerback 13.3292 1.00997 -9.91475
upperback -3.12267 -0.794645 -9.736
thorax -11.0494 0.106262 -5.05108
lowerneck -24.9508 8.01397 1.54863
upperneck 9.95544 10.0067 2.27368
head 6.95098 5.11437 1.7856
rclavicle -2.8625e-014 -8.5875e-014
rhumerus -14.8909 -8.35865 -9.95878
rradius 30.4402
rwrist -0.518669
rhand -25.2599 -421.965
rfingers 7.12502
rthumb 181.261 -88.0588
lclavicle -2.8625e-014 -8.5875e-014
lhumerus -5.81612 3.00667 38.719
lradius 33.3555
lwrist 32.3648
lhand -43.0072 -748.827
lfingers 7.12502
lthumb -15.8653 0.542794
rfemur -29.6091 -8.25829 48.5926
rtibia 40.5294
rfoot -2.05096 -26.3769
rtoes -8.3264
lfemur -81.7542 23.3787 -14.97
ltibia 57.0361
lfoot -14.9344 30.588
ltoes 14.2933
511
root 1.8248 15.8541 33.508 614.282 49.0626 -130.225
lowerback 12.7931 0.934195 -8.79249
upperback -3.13096 -0.643804 -9.56772
thorax -10.7358 0.0920463 -5.48674
lowerneck -24.8192 7.8567 1.3069
upperneck 10.5493 9.83405 2.46303
head 7.10967 5.03297 1.87503
rclavicle 1.11319e-013 -3.18055e-014
rhumerus -14.5456 -7.48916 -10.2948
rradius 30.627
rwrist -0.480576
rhand -26.215 -422.097
rfingers 7.12502
rthumb 180.338 -87.9233
lclavicle 1.11319e-013 -3.18055e-014
lhumerus -7.41297 2.81009 39.4623
lradius 33.906
lwrist 31.1636
lhand -43.1749 -749.743
lfingers 7.12502
lthumb -16.0268 -0.385851
rfemur -29.5795 -8.71876 48.5117
rtibia 40.5067
rfoot -0.511446 -26.805
rtoes -14.3838
lfemur -82.1298 24.6562 -16.6156
ltibia 56.7515
lfoot -13.766 29.3404
ltoes 13.0843
512
root 1.75523 15.9056 33.6119 614.738 50.2799 -129.539
lowerback 12.2147 0.830319 -7.78337
upperback -3.14901 -0.5535 -9.375
thorax -10.4074 0.0614638 -5.82101
lowerneck -24.6303 7.79746 1.25618
upperneck 11.0286 9.76888 2.42208
head 7.24184 4.98785 1.86905
rclavicle -4.13472e-014 3.18055e-015
rhumerus -14.0135 -7.01644 -10.6976
rradius 30.8989
rwrist -0.155418
rhand -25.3546 -421.629
rfingers 7.12502
rthumb 181.169 -88.3944
lclavicle -4.13472e-014 3.18055e-015
lhumerus -9.00795 2.41146 40.0497
lradius 34.3492
lwrist 30.3939
lhand -43.1335 -749.985
lfingers 7.12502
lthumb -15.987 -0.62487
rfemur -29.4681 -9.37859 48.6306
rtibia 40.2904
rfoot 0.00872584 -28.7373
rtoes -18.9108
lfemur -81.0977 24.3798 -15.9596
ltibia 56.2243
lfoot -13.2686 30.0765
ltoes 12.9006
513
root 1.68622 15.9396 33.7168 615.269 51.5919 -128.802
lowerback 11.6779 0.761568 -6.97741
upperback -3.21191 -0.467872 -9.14401
thorax -10.1525 0.0461986 -6.00608
lowerneck -24.3179 7.86871 1.08246
upperneck 11.5525 9.95457 2.15328
head 7.37231 5.02923 1.83473
rclavicle 1.27222e-014 4.45278e-014
rhumerus -13.4064 -6.1199 -11.0254
rradius 31.0705
rwrist -0.467171
rhand -37.0167 -423.052
rfingers 7.12502
rthumb 169.909 -87.2099
lclavicle 1.27222e-014 4.45278e-014
lhumerus -10.6499 2.10572 40.7975
lradius 34.8188
lwrist 29.7106
lhand -43.4043 -750.521
lfingers 7.12502
lthumb -16.2476 -1.18176
rfemur -29.421 -9.73719 48.5221
rtibia 40.1557
rfoot -2.46594 -31.0316
rtoes -18.085
lfemur -80.3939 24.465 -15.898
ltibia 55.7781
lfoot -12.9275 30.2314
ltoes 13.0033
514
root 1.62577 15.9715 33.8121 615.978 53.513 -127.879
lowerback 11.0592 0.83315 -6.77195
upperback -3.28241 -0.275981 -9.0472
thorax -9.85321 0.123167 -6.02424
lowerneck -24.7776 7.86756 0.605392
upperneck 13.0237 10.0332 2.54195
head 7.89382 5.06443 2.11342
rclavicle -5.40694e-014 -6.04305e-014
rhumerus -12.9919 -5.03389 -11.3112
rradius 30.5434
rwrist 0.636524
rhand -30.9833 -420.871
rfingers 7.12502
rthumb 175.733 -89.1924
lclavicle -5.40694e-014 -6.04305e-014
lhumerus -12.1838 1.65112 41.6
lradius 35.2475
lwrist 29.0852
lhand -43.1377 -752.652
lfingers 7.12502
lthumb -15.991 -3.29205
rfemur -29.2279 -9.42047 47.4471
rtibia 39.6895
rfoot -1.36662 -32.0336
rtoes -20.7304
lfemur -79.7478 25.0894 -16.9044
ltibia 55.1638
lfoot -12.5583 29.8785
ltoes 13.4764
515
root 1.5795 15.994 33.8841 617.148 56.3891 -126.435
lowerback 10.2221 1.15902 -7.31021
upperback -3.36551 0.18328 -9.19781
thorax -9.43297 0.375737 -5.94072
lowerneck -24.3252 8.00449 1.11747
upperneck 13.312 10.2728 1.25259
head 8.01742 5.05062 1.63618
rclavicle 3.49861e-014 7.63333e-014
rhumerus -12.5098 -5.25011 -11.3297
rradius 32.0066
rwrist -1.50698
rhand -26.0494 -421.224
rfingers 7.12502
rthumb 180.498 -88.7973
lclavicle 3.49861e-014 7.63333e-014
lhumerus -13.3948 0.932732 42.5079
lradius 35.3744
lwrist 28.6967
lhand -42.1794 -754.007
lfingers 7.12502
lthumb -15.068 -4.57496
rfemur -29.1001 -8.87967 45.2693
rtibia 39.404
rfoot -4.936 -33.0837
rtoes -17.854
lfemur -79.592 26.9587 -19.9453
ltibia 54.6754
lfoot -10.9438 28.5976
ltoes 10.764
516
root 1.52295 16.0588 33.9869 618.183 58.0166 -125.343
lowerback 9.53741 1.05556 -6.93556
upperback -3.47159 0.169282 -9.17615
thorax -9.14347 0.345565 -6.09496
lowerneck -26.3673 7.71106 0.815377
upperneck 16.7116 9.72827 2.66636
head 9.44002 4.89417 2.29028
rclavicle 6.36111e-014 3.18055e-015
rhumerus -11.8946 -5.44524 -12.1525
rradius 31.9815
rwrist -0.38988
rhand -27.9656 -420.689
rfingers 7.12502
rthumb 178.647 -89.3354
lclavicle 6.36111e-014 3.18055e-015
lhumerus -14.6681 0.80266 42.8226
lradius 35.3613
lwrist 27.955
lhand -41.9821 -753.639
lfingers 7.12502
lthumb -14.8779 -4.19279
rfemur -29.1607 -9.00705 44.5647
rtibia 38.953
rfoot -6.73439 -33.7273
rtoes -16.708
lfemur -77.9513 26.0247 -18.6285
ltibia 53.9583
lfoot -10.5707 30.1207
ltoes 11.6611
517
root 1.46724 16.0664 34.0906 619.374 59.6622 -124.135
lowerback 8.86323 1.16183 -6.63713
upperback -3.49905 0.424301 -9.00998
thorax -8.75819 0.44933 -6.08397
lowerneck -24.5673 8.44494 1.93909
upperneck 14.8414 10.9021 -0.212902
head 8.71536 5.18994 1.17969
rclavicle -4.77083e-014 -5.725e-014
rhumerus -11.5061 -5.96566 -12.2923
rradius 33.7342
rwrist -3.19172
rhand -25.5211 -420.948
rfingers 7.12502
rthumb 181.008 -89.0749
lclavicle -4.77083e-014 -5.725e-014
lhumerus -15.7109 1.57437 43.987
lradius 35.3018
lwrist 26.0393
lhand -41.856 -753.45
lfingers 7.12502
lthumb -14.7565 -3.99522
rfemur -29.3731 -9.42836 43.9244
rtibia 38.7481
rfoot -8.83358 -34.0157
rtoes -15.6402
lfemur -78.2277 27.3713 -20.4267
ltibia 53.5225
lfoot -9.80025 28.6969
ltoes 11.4546
518
root 1.40877 16.1283 34.1943 620.816 61.0784 -122.746
lowerback 8.17314 1.34559 -6.21265
upperback -3.53644 0.789913 -8.67822
thorax -8.36643 0.600503 -5.97358
lowerneck -25.477 8.15771 1.15118
upperneck 15.998 10.7083 0.217996
head 9.19644 5.07169 1.48815
rclavicle -3.18055e-014 -1.39944e-013
rhumerus -11.2954 -6.05298 -12.1982
rradius 34.9111
rwrist -4.52424
rhand -25.7887 -420.935
rfingers 7.12502
rthumb 180.75 -89.0867
lclavicle -3.18055e-014 -1.39944e-013
lhumerus -16.336 0.601135 44.866
lradius 35.3052
lwrist 26.0466
lhand -41.7895 -753.395
lfingers 7.12502
lthumb -14.6924 -3.9351
rfemur -29.3257 -9.20442 43.254
rtibia 38.3709
rfoot -18.0239 -31.6947
rtoes -3.60303
lfemur -77.0871 26.9231 -19.6282
ltibia 52.8864
lfoot -9.20404 29.5385
ltoes 11.582
